PathFileType	4	(X/Y/Z)	s11c0302.trc
DataRate	CameraRate	NumFrames	NumMarkers	Units	OrigDataRate	OrigDataStartFrame	OrigNumFrames
200	200	4	48	mm	200	250	2000
Frame#	Time	racr			lacr			c7			jug			rlel			rdr			llel			ldr			s2			lic			ric			lasi			rasi			rpsi			lpsi			rgt			lgt			rth1			rth2			rth3			rth4			rlfc			rmfc			rsh1			rsh2			rsh3			rsh4			rlmal			rcal			rtoe			rmt5			lth1			lth2			lth4			lth3			llfc			lmfc			llmal			lcal			lmt5			lsh1			lsh2			lsh3			lsh4			ltoe			SBIKE			LBIKE			RBIKE			
		X1	Y1	Z1	X2	Y2	Z2	X3	Y3	Z3	X4	Y4	Z4	X5	Y5	Z5	X6	Y6	Z6	X7	Y7	Z7	X8	Y8	Z8	X9	Y9	Z9	X10	Y10	Z10	X11	Y11	Z11	X12	Y12	Z12	X13	Y13	Z13	X14	Y14	Z14	X15	Y15	Z15	X16	Y16	Z16	X17	Y17	Z17	X18	Y18	Z18	X19	Y19	Z19	X20	Y20	Z20	X21	Y21	Z21	X22	Y22	Z22	X23	Y23	Z23	X24	Y24	Z24	X25	Y25	Z25	X26	Y26	Z26	X27	Y27	Z27	X28	Y28	Z28	X29	Y29	Z29	X30	Y30	Z30	X31	Y31	Z31	X32	Y32	Z32	X33	Y33	Z33	X34	Y34	Z34	X35	Y35	Z35	X36	Y36	Z36	X37	Y37	Z37	X38	Y38	Z38	X39	Y39	Z39	X40	Y40	Z40	X41	Y41	Z41	X42	Y42	Z42	X43	Y43	Z43	X44	Y44	Z44	X45	Y45	Z45	X46	Y46	Z46	X47	Y47	Z47	X48	Y48	Z48	
250	1.2500	428.794600	1370.135207	-102.559533	427.459723	1406.372211	-407.706153	347.209416	1503.995897	-249.332408	373.957693	1326.430750	-264.181137	571.184254	1144.608148	-51.258846	786.561875	931.929761	-88.140655	541.218950	1132.565101	-484.928898	788.398901	919.679349	-459.156414	-193.453053	1226.972485	-244.665797	14.268887	1253.025017	-439.549196	36.463869	1225.311508	-50.739858	40.840765	1167.440332	-419.305094	59.032599	1156.030175	-84.227420	-145.628499	1299.438490	-189.937911	-154.261878	1299.878726	-282.402518	-24.952738	1078.784711	-32.345902	-67.645915	1116.553010	-463.000455	69.826245	973.221652	-33.326114	148.845799	923.873353	-44.446408	188.769649	847.225559	-62.359824	174.899587	948.999052	-53.041851	252.923238	763.293353	-79.585565	247.541311	747.233328	-205.927393	165.133354	627.777307	-67.950893	135.770562	546.591551	-87.900081	70.947623	488.245487	-89.275378	156.008963	537.914737	-120.745205	-16.609676	386.633249	-103.293883	-84.742270	380.277154	-151.117482	187.587557	292.355842	-146.169124	114.665010	279.683388	-76.598473	57.018142	1029.329708	-485.331098	137.297920	999.864882	-486.238676	159.778602	1028.612229	-480.560187	194.524498	930.310298	-486.732486	304.215107	841.410327	-468.861316	327.413664	840.238705	-344.219101	241.029962	415.696472	-423.612874	200.824934	355.209597	-383.230566	405.830859	368.545670	-458.858197	281.659286	714.775328	-480.312229	297.107874	631.734569	-462.663838	268.328582	549.133418	-452.257079	328.933476	633.443385	-442.065937	490.476616	422.128484	-392.386295	-216.614625	951.056498	-257.252517	-17.737524	80.765706	-461.085221	-17.865918	80.849209	-62.107024	
251	1.2550	428.791343	1370.165221	-102.498445	427.517144	1406.268951	-407.507602	347.282345	1503.989433	-249.265824	373.850768	1326.344566	-264.116743	571.245045	1144.643331	-51.219121	786.574341	931.926632	-88.128799	541.857559	1133.071532	-485.297815	788.319781	919.703995	-459.175877	-193.462857	1227.160230	-244.730708	14.249459	1253.119864	-439.647401	36.367516	1225.467467	-50.752342	40.817509	1167.541152	-419.372923	58.878588	1156.162295	-84.216764	-145.690681	1299.789983	-190.021690	-154.279273	1300.082994	-282.455768	-25.127868	1078.951144	-32.299815	-67.744468	1116.680139	-462.986262	69.676147	973.320915	-33.190454	148.574050	923.996321	-44.206861	188.403320	847.391096	-61.949806	174.658625	949.066215	-52.790758	252.597544	763.324494	-79.207432	247.393245	747.229839	-205.538836	164.867961	627.774583	-67.667877	135.543366	546.556176	-87.681495	70.743018	488.236716	-89.099548	155.808027	537.912979	-120.497554	-16.724206	386.509560	-103.261584	-84.819108	380.115440	-151.158655	187.559358	292.407052	-146.152229	114.637815	279.660309	-76.568001	56.868852	1029.459025	-485.417094	137.138535	999.948964	-486.375703	159.635733	1028.672198	-480.714549	194.330824	930.372394	-486.905482	303.937151	841.429121	-469.172062	327.258987	840.239237	-344.549478	240.991505	415.641400	-423.625942	200.813904	355.166241	-383.252517	405.802884	368.543243	-458.870586	281.427950	714.714021	-480.449932	296.922496	631.711426	-462.845992	268.198084	549.080448	-452.384959	328.760983	633.455422	-442.257861	490.435868	422.184098	-392.383616	-216.621290	951.056513	-257.248635	-17.796468	80.872120	-460.983593	-17.801320	80.849300	-62.190708	
252	1.2600	428.813011	1370.198146	-102.474767	427.560847	1406.171075	-407.305508	347.334242	1503.987208	-249.175457	373.791555	1326.355462	-264.043121	571.318177	1144.684158	-51.204357	786.616159	931.917534	-88.097128	542.460912	1133.546100	-485.602224	787.046340	918.298545	-456.958452	-193.515325	1227.419344	-244.741805	14.260787	1253.268193	-439.546105	36.254284	1225.579575	-50.772352	40.722939	1167.648705	-419.305400	58.765660	1156.295841	-84.216429	-145.694027	1299.948182	-190.088012	-154.266031	1300.262753	-282.501923	-25.288190	1079.141240	-32.258438	-67.771222	1117.093257	-462.879853	69.506187	973.416076	-33.058301	148.301074	924.091989	-43.971746	188.116846	847.455693	-61.667181	174.402607	949.165766	-52.529438	252.273752	763.345369	-78.832355	247.229208	747.258672	-205.108821	164.589776	627.759914	-67.396407	135.312958	546.522123	-87.435849	70.533662	488.186235	-88.921753	155.645455	537.923390	-120.227544	-16.846725	386.404016	-103.208410	-84.948148	379.835428	-150.925828	187.509135	292.476284	-146.122985	114.601572	279.622664	-76.564259	56.742765	1029.589499	-485.487353	137.010403	1000.031307	-486.504127	159.514156	1028.744290	-480.858632	194.143244	930.432989	-487.071852	303.681064	841.375634	-469.373182	327.128599	840.300457	-344.793339	240.972959	415.604309	-423.678056	200.802498	355.120912	-383.255232	405.803531	368.539082	-458.873376	281.227120	714.644475	-480.603931	296.751885	631.630520	-463.001879	268.100745	549.029909	-452.466884	328.614040	633.451713	-442.433226	490.408134	422.217067	-392.372750	-216.605022	951.063515	-257.269497	-17.778352	80.861431	-460.981527	-17.809968	80.853675	-62.200124	
253	1.2650	428.816757	1370.237512	-102.459042	427.611816	1406.073105	-407.096140	347.447928	1503.993591	-249.068252	373.751872	1326.392392	-263.960467	571.396281	1144.724655	-51.212480	786.636076	931.899351	-88.079364	543.063700	1133.963350	-485.924385	786.959403	918.314307	-456.954344	-193.581961	1227.619436	-244.736804	14.267632	1253.462827	-439.792480	36.183762	1225.661987	-50.801106	40.801804	1167.872996	-419.520735	58.670021	1156.415983	-84.209876	-145.695311	1300.138859	-190.119569	-154.210843	1300.505299	-282.568996	-25.431335	1079.305840	-32.245300	-67.800036	1117.276769	-462.901638	69.174779	973.605214	-32.898097	148.034766	924.248304	-43.726354	187.851034	847.509366	-61.383783	174.183666	949.227869	-52.276886	251.970215	763.375301	-78.499786	247.058433	747.308080	-204.693310	164.322679	627.728631	-67.128176	135.066225	546.560991	-87.227175	70.360653	488.154186	-88.784575	155.459989	537.916902	-119.955305	-16.970196	386.279961	-103.167881	-85.065236	379.692812	-150.911686	187.460778	292.601827	-146.108553	114.577697	279.642055	-76.544813	56.622654	1029.726268	-485.571690	136.877447	1000.125014	-486.662265	159.405053	1028.819289	-481.008682	193.978265	930.482282	-487.241167	303.434101	841.366419	-469.617243	327.028436	840.347181	-345.045520	240.965903	415.514201	-423.707817	200.791945	355.046780	-383.240282	405.801804	368.525254	-458.874444	281.040784	714.596070	-480.784057	296.612892	631.588598	-463.162190	267.998177	548.952574	-452.565749	328.467397	633.439642	-442.608664	490.381905	422.247477	-392.393215	-216.593566	951.062329	-257.227605	-17.727141	80.770945	-461.063253	-17.808089	80.867834	-62.196181	
